<svg width="20" height="20" viewBox="0 0 20 20" fill="none" xmlns="http://www.w3.org/2000/svg">
<path d="M10.0001 19.5833C4.71591 19.5833 0.416748 15.2842 0.416748 9.99999C0.416748 4.71582 4.71591 0.416656 10.0001 0.416656C15.2842 0.416656 19.5834 4.71582 19.5834 9.99999C19.5834 15.2842 15.2842 19.5833 10.0001 19.5833ZM10.0001 1.24999C5.17508 1.24999 1.25008 5.17499 1.25008 9.99999C1.25008 14.825 5.17508 18.75 10.0001 18.75C14.8251 18.75 18.7501 14.825 18.7501 9.99999C18.7501 5.17499 14.8251 1.24999 10.0001 1.24999Z" fill="white"/>
<path d="M13.7499 10.4167H6.24992C6.01992 10.4167 5.83325 10.23 5.83325 10C5.83325 9.77001 6.01992 9.58334 6.24992 9.58334H13.7499C13.9791 9.58334 14.1666 9.77001 14.1666 10C14.1666 10.23 13.9791 10.4167 13.7499 10.4167Z" fill="white"/>
<path d="M9.99992 14.1667C9.76992 14.1667 9.58325 13.9792 9.58325 13.75V6.25001C9.58325 6.02001 9.76992 5.83334 9.99992 5.83334C10.2299 5.83334 10.4166 6.02001 10.4166 6.25001V13.75C10.4166 13.9792 10.2299 14.1667 9.99992 14.1667Z" fill="white"/>
</svg>
