<svg width="88" height="20" viewBox="0 0 88 20" fill="none" xmlns="http://www.w3.org/2000/svg">
<path d="M10.2695 20C9.23561 20 8.35536 19.872 7.62881 19.6161C6.90225 19.3368 6.30145 19.0111 5.8264 18.6387C5.37929 18.2664 5.04395 17.929 4.8204 17.6265C4.62479 17.324 4.51301 17.1495 4.48507 17.103H4.40123L3.68865 19.651H0V0H4.40123V8.44677H4.48507C4.51301 8.37696 4.62479 8.17917 4.8204 7.8534C5.01601 7.52763 5.3234 7.16696 5.74256 6.77138C6.18967 6.3758 6.7765 6.03839 7.50306 5.75916C8.25755 5.45666 9.17972 5.30541 10.2695 5.30541C12.7845 5.30541 14.6009 5.98022 15.7187 7.32984C16.8365 8.67946 17.3954 10.4828 17.3954 12.74C17.3954 14.9273 16.8365 16.6841 15.7187 18.0105C14.6289 19.3368 12.8125 20 10.2695 20ZM8.8863 16.9983C10.032 16.9983 10.9123 16.8005 11.527 16.4049C12.1698 15.986 12.6029 15.4508 12.8265 14.7993C13.078 14.1245 13.2037 13.4264 13.2037 12.7051C13.2037 11.9837 13.078 11.3089 12.8265 10.6806C12.575 10.0291 12.1139 9.50552 11.4432 9.10995C10.8005 8.6911 9.90627 8.48168 8.76055 8.48168C7.19567 8.48168 6.07789 8.88889 5.40723 9.70332C4.76451 10.4945 4.44315 11.4951 4.44315 12.7051C4.44315 13.9616 4.77848 14.9971 5.44915 15.8115C6.14776 16.6027 7.29347 16.9983 8.8863 16.9983Z" fill="url(#paint0_linear)"/>
<path d="M20.4651 20V0H24.5581V20H20.4651Z" fill="url(#paint1_linear)"/>
<path d="M52.7352 20C51.0051 20 49.5716 19.6793 48.4347 19.038C47.2978 18.3967 46.4451 17.5178 45.8767 16.4014C45.3082 15.2613 45.024 13.9667 45.024 12.5178C44.9993 10.3325 45.6295 8.53919 46.9147 7.13777C48.2246 5.71259 50.1648 5 52.7352 5C55.2314 5 57.1221 5.68883 58.4073 7.06651C59.7172 8.44418 60.3722 10.2613 60.3722 12.5178C60.3722 13.9192 60.1003 15.19 59.5566 16.3302C59.0128 17.4703 58.1725 18.3729 57.0356 19.038C55.8987 19.6793 54.4652 20 52.7352 20ZM52.7352 16.9359C53.8226 16.9359 54.6506 16.7102 55.219 16.2589C55.8122 15.8076 56.2076 15.2375 56.4054 14.5487C56.6031 13.8361 56.702 13.1235 56.702 12.4109C56.702 11.6746 56.6031 10.9501 56.4054 10.2375C56.2076 9.52494 55.8122 8.94299 55.219 8.49168C54.6506 8.04038 53.8226 7.81472 52.7352 7.81472C51.623 7.81472 50.7703 8.05226 50.1771 8.52732C49.6087 8.97862 49.2132 9.56057 48.9908 10.2732C48.7931 10.962 48.6942 11.6746 48.6942 12.4109C48.6942 13.1235 48.7931 13.8361 48.9908 14.5487C49.2132 15.2375 49.6087 15.8076 50.1771 16.2589C50.7703 16.7102 51.623 16.9359 52.7352 16.9359Z" fill="url(#paint2_linear)"/>
<path d="M35.3398 20C33.6097 20 32.1762 19.6793 31.0393 19.038C29.9024 18.3967 29.0498 17.5178 28.4813 16.4014C27.9129 15.2613 27.6286 13.9667 27.6286 12.5178C27.6039 10.3325 28.2342 8.53919 29.5193 7.13777C30.8292 5.71259 32.7694 5 35.3398 5C37.836 5 39.7267 5.68883 41.0119 7.06651C42.3218 8.44418 42.9768 10.2613 42.9768 12.5178C42.9768 13.9192 42.7049 15.19 42.1612 16.3302C41.6174 17.4703 40.7771 18.3729 39.6402 19.038C38.5033 19.6793 37.0698 20 35.3398 20ZM35.3398 16.9359C36.4272 16.9359 37.2552 16.7102 37.8237 16.2589C38.4168 15.8076 38.8123 15.2375 39.01 14.5487C39.2077 13.8361 39.3066 13.1235 39.3066 12.4109C39.3066 11.6746 39.2077 10.9501 39.01 10.2375C38.8123 9.52494 38.4168 8.94299 37.8237 8.49168C37.2552 8.04038 36.4272 7.81472 35.3398 7.81472C34.2276 7.81472 33.3749 8.05226 32.7817 8.52732C32.2133 8.97862 31.8179 9.56057 31.5954 10.2732C31.3977 10.962 31.2988 11.6746 31.2988 12.4109C31.2988 13.1235 31.3977 13.8361 31.5954 14.5487C31.8179 15.2375 32.2133 15.8076 32.7817 16.2589C33.3749 16.7102 34.2276 16.9359 35.3398 16.9359Z" fill="url(#paint3_linear)"/>
<path d="M62.4186 20V6H66.3171L66.3609 9.03163H66.4485C66.4777 8.94079 66.5945 8.74777 66.799 8.45255C67.0034 8.13463 67.31 7.794 67.7188 7.43066C68.1277 7.04461 68.6679 6.71533 69.3396 6.44282C70.0112 6.14761 70.8435 6 71.8364 6C73.2965 6 74.3916 6.30657 75.1217 6.91971C75.8517 7.51014 76.3774 8.21411 76.6986 9.03163H76.7862C76.8154 8.94079 76.9322 8.74777 77.1366 8.45255C77.3703 8.13463 77.7061 7.794 78.1441 7.43066C78.6114 7.04461 79.1954 6.71533 79.8963 6.44282C80.5971 6.14761 81.4586 6 82.4807 6C83.6196 6 84.5395 6.19302 85.2403 6.57907C85.9412 6.94242 86.4815 7.4193 86.8611 8.00973C87.2699 8.57745 87.5473 9.19059 87.6934 9.84915C87.8686 10.5077 87.9562 11.1436 87.9562 11.7567C87.9854 12.3471 88 12.8354 88 13.2214V20H84.2329V13.1873C84.2329 12.8467 84.2183 12.4493 84.1891 11.9951C84.1599 11.5182 84.043 11.0641 83.8386 10.6326C83.6342 10.1784 83.2984 9.80373 82.8311 9.50851C82.3639 9.2133 81.7214 9.06569 80.9038 9.06569C79.8817 9.06569 79.1078 9.28143 78.5822 9.71289C78.0565 10.1217 77.6915 10.6553 77.4871 11.3139C77.2827 11.9497 77.1804 12.6196 77.1804 13.3236V20H73.4133V13.1873C73.4133 12.8467 73.3987 12.4493 73.3695 11.9951C73.3403 11.5182 73.2235 11.0641 73.0191 10.6326C72.8147 10.1784 72.4788 9.80373 72.0116 9.50851C71.5444 9.2133 70.9019 9.06569 70.0842 9.06569C69.0622 9.06569 68.2883 9.28143 67.7626 9.71289C67.237 10.1217 66.872 10.6553 66.6675 11.3139C66.4631 11.9497 66.3609 12.6196 66.3609 13.3236V20H62.4186Z" fill="url(#paint4_linear)"/>
<defs>
<linearGradient id="paint0_linear" x1="5.15418" y1="-6.23742e-08" x2="13.8808" y2="19.7533" gradientUnits="userSpaceOnUse">
<stop stop-color="#4D7CF5"/>
<stop offset="1" stop-color="#7A31D8"/>
</linearGradient>
<linearGradient id="paint1_linear" x1="21.6778" y1="-6.23742e-08" x2="31.4732" y2="5.21709" gradientUnits="userSpaceOnUse">
<stop stop-color="#4D7CF5"/>
<stop offset="1" stop-color="#7A31D8"/>
</linearGradient>
<linearGradient id="paint2_linear" x1="49.5711" y1="5" x2="55.3984" y2="20.5182" gradientUnits="userSpaceOnUse">
<stop stop-color="#4D7CF5"/>
<stop offset="1" stop-color="#7A31D8"/>
</linearGradient>
<linearGradient id="paint3_linear" x1="32.1757" y1="5" x2="38.003" y2="20.5182" gradientUnits="userSpaceOnUse">
<stop stop-color="#4D7CF5"/>
<stop offset="1" stop-color="#7A31D8"/>
</linearGradient>
<linearGradient id="paint4_linear" x1="69.9983" y1="6" x2="73.3263" y2="21.8261" gradientUnits="userSpaceOnUse">
<stop stop-color="#4D7CF5"/>
<stop offset="1" stop-color="#7A31D8"/>
</linearGradient>
</defs>
</svg>
