<svg width="24" height="24" viewBox="0 0 24 24" fill="none" xmlns="http://www.w3.org/2000/svg">
<path d="M1.87364 9.33307C1.87364 9.54018 1.73677 9.70807 1.56793 9.70807C1.39908 9.70807 1.26221 9.54018 1.26221 9.33307V7.67794C1.26221 7.47083 1.39908 7.30294 1.56793 7.30294C1.73677 7.30294 1.87364 7.47083 1.87364 7.67794V9.33307ZM1.57146 8.05261C1.40263 8.05501 1.26418 7.88907 1.26223 7.68197C1.26028 7.47488 1.39556 7.30506 1.56439 7.30267C1.61183 7.30199 2.14024 7.30187 2.17885 7.3027C3.37516 7.32842 4.14471 7.96337 4.56943 9.14002C4.87551 9.98797 4.97101 10.8022 5.07977 12.7446C5.08224 12.7887 5.08224 12.7887 5.08471 12.8327C5.19308 14.7643 5.30604 15.6211 5.63321 16.3815C6.03975 17.3263 6.74664 17.7598 7.96528 17.6485C8.13366 17.6331 8.28032 17.788 8.29287 17.9946C8.30541 18.2011 8.17909 18.381 8.01071 18.3964C6.55886 18.5291 5.61748 17.9517 5.09246 16.7315C4.71004 15.8427 4.58934 14.9273 4.47472 12.8842C4.47224 12.8401 4.47224 12.8401 4.46977 12.796C4.36633 10.9486 4.2762 10.1802 4.01035 9.44366C3.6814 8.53232 3.12488 8.07315 2.16815 8.05258C2.13623 8.0519 1.61345 8.05202 1.57146 8.05261ZM1.56723 9.70807C1.39839 9.7076 1.26183 9.53933 1.26221 9.33222C1.26259 9.12512 1.39977 8.9576 1.56862 8.95807C1.77572 8.95865 2.12369 8.97065 2.2213 8.98817C2.93933 9.11714 3.39169 9.64913 3.63454 10.5312C3.80813 11.1617 3.8648 11.7757 3.92909 13.2138C3.95846 13.8708 3.97041 14.1084 3.99391 14.4472C4.2248 17.776 5.16127 19.2577 7.98145 19.25C8.15029 19.2495 8.28747 19.417 8.28784 19.6241C8.28822 19.8312 8.15165 19.9995 7.9828 20C4.7914 20.0087 3.63962 18.1864 3.38468 14.5108C3.36047 14.1617 3.34829 13.9198 3.31857 13.2548C3.20293 10.668 2.98699 9.8837 2.13274 9.73026C2.07686 9.72023 1.73806 9.70854 1.56723 9.70807ZM21.3396 6.94551L20.2847 7.2406C20.1201 7.28665 19.9562 7.16029 19.9186 6.95837C19.8811 6.75645 19.9841 6.55543 20.1487 6.50938L21.5003 6.13131C21.6643 6.08542 21.8278 6.21077 21.866 6.41178L23.2542 13.7159C23.2925 13.9176 23.1903 14.1192 23.0258 14.1662L21.686 14.5494C21.5214 14.5965 21.3568 14.4707 21.3187 14.2686L20.2245 8.4594C20.1865 8.25761 20.2891 8.05624 20.4536 8.00961C20.6181 7.96299 20.7823 8.08878 20.8203 8.29057L21.8455 13.7337L22.5893 13.521L21.3396 6.94551ZM20.4574 8.00858C20.6223 7.9645 20.7852 8.09282 20.8211 8.29518C20.8571 8.49754 20.7525 8.69732 20.5875 8.7414L17.6917 9.51505C17.5311 9.55796 17.3716 9.43745 17.3306 9.24224L17.0105 7.71858C16.967 7.5116 17.0731 7.30195 17.2437 7.258L20.1538 6.50801C20.3191 6.46542 20.4812 6.59521 20.5159 6.79789C20.5506 7.00057 20.4448 7.1994 20.2796 7.24198L17.6824 7.91131L17.8492 8.70539L20.4574 8.00858ZM15.3223 5C15.5404 5 15.6884 5.27222 15.6045 5.51923L14.8402 7.76922C14.7927 7.90896 14.6814 7.99999 14.558 7.99999H13.0294C12.906 7.99999 12.7947 7.90896 12.7472 7.76922L11.9829 5.51923C11.899 5.27222 12.047 5 12.2651 5H15.3223ZM12.7237 5.75L13.2332 7.24999H14.3542L14.8637 5.75H12.7237ZM17.2987 7.24999C17.4422 7.24999 17.5664 7.37248 17.5973 7.54443L18.1324 10.5284C18.1743 10.7622 18.0293 10.9837 17.8341 10.9839L9.7534 10.9931C9.55803 10.9933 9.41262 10.7718 9.45451 10.5377L9.9901 7.5446C10.0209 7.37256 10.1451 7.24999 10.2887 7.24999H17.2987ZM17.0529 7.99999H10.5346L10.1333 10.2426L17.4536 10.2344L17.0529 7.99999ZM17.8379 10.25C17.9814 10.25 18.1056 10.3724 18.1365 10.5442L18.6757 13.5442C18.7178 13.7783 18.5725 14 18.3771 14H9.21025C9.01488 14 8.86964 13.7783 8.91171 13.5442L9.45093 10.5442C9.48182 10.3724 9.606 10.25 9.74948 10.25H17.8379ZM9.99514 11L9.59072 13.25H17.9967L17.5923 11H9.99514ZM18.3771 13.25C18.5174 13.25 18.6397 13.3671 18.6737 13.5341L19.2849 16.534C19.3331 16.7707 19.1871 17 18.9883 17H8.59912C8.40025 17 8.25431 16.7707 8.30253 16.534L8.91366 13.5341C8.94767 13.3671 9.06996 13.25 9.21025 13.25H18.3771ZM9.44898 14L8.99063 16.25H18.5968L18.1384 14H9.44898ZM18.9883 16.25C19.1286 16.25 19.2509 16.3671 19.2849 16.534L19.896 19.534C19.9442 19.7707 19.7983 19.9999 19.5994 19.9999H7.988C7.78912 19.9999 7.64319 19.7707 7.6914 19.534L8.30253 16.534C8.33654 16.3671 8.45883 16.25 8.59912 16.25H18.9883ZM8.83785 17L8.3795 19.2499H19.2079L18.7495 17H8.83785Z" fill="#828282"/>
</svg>
