<svg width="24" height="24" viewBox="0 0 24 24" fill="none" xmlns="http://www.w3.org/2000/svg">
<path d="M18.1104 7.68401C16.9611 4.22819 14.6153 2.16981 14.5146 2.08247C14.4766 2.04923 14.427 2.02457 14.3714 2.01123C14.3158 1.99789 14.2563 1.9964 14.1997 2.00693L5.35801 3.49879L5.28559 3.51767C5.11712 3.58865 4.97269 3.68773 4.86349 3.80726C4.75429 3.92678 4.68324 4.06354 4.65584 4.20695C4.57712 4.67906 4.97071 5.21018 5.80828 5.80031C5.17853 6.81298 4.39764 8.70376 4.23391 12.0085C3.97256 17.5416 4.0009 19.8903 4.0009 19.9139C4.0008 19.9398 4.00721 19.9654 4.01979 19.9895V20.006C4.03187 20.0265 4.04778 20.0455 4.06702 20.0626C4.09405 20.0818 4.12485 20.0977 4.15834 20.1099L9.71272 21.9983H9.74106C9.75665 22.0006 9.77269 22.0006 9.78829 21.9983H9.82922C9.86729 21.9977 9.90479 21.9912 9.93943 21.9794L18.7748 19.0995C18.8297 19.0816 18.8766 19.0523 18.91 19.0151C18.9435 18.9779 18.9621 18.9343 18.9637 18.8895C18.9763 18.5732 19.244 11.1186 18.1104 7.68401ZM6.84736 5.36597C7.57853 6.27384 8.14105 7.25226 8.51935 8.27415C7.95887 8.48423 6.98906 9.23252 7.01425 11.9094C7.01425 11.972 7.04742 12.032 7.10647 12.0763C7.16552 12.1206 7.24561 12.1454 7.32912 12.1454C7.41263 12.1454 7.49272 12.1206 7.55177 12.0763C7.61082 12.032 7.64399 11.972 7.64399 11.9094C7.6251 9.65742 8.31153 8.96578 8.68938 8.75333C8.78384 9.03896 8.87201 9.33639 8.94758 9.64798C9.81033 13.1723 9.69698 18.6274 9.60881 20.8275L7.64399 17.7304V15.0654C7.64399 15.0028 7.61082 14.9428 7.55177 14.8985C7.49272 14.8542 7.41263 14.8293 7.32912 14.8293C7.24561 14.8293 7.16552 14.8542 7.10647 14.8985C7.04742 14.9428 7.01425 15.0028 7.01425 15.0654V17.6832L4.63065 19.3663C4.63065 18.3914 4.67473 16.0615 4.86366 12.0298C5.06203 7.79496 6.31208 5.96319 6.84736 5.36597ZM7.22836 18.1789L9.21837 21.3161L4.8857 19.8431L7.22836 18.1789ZM18.3371 18.7266L10.2071 21.427C10.2889 19.8242 10.5219 13.5074 9.57732 9.563C8.94758 6.92392 7.57787 5.25031 6.82847 4.48785L6.72141 4.37927C6.66861 4.33406 6.5948 4.30566 6.51503 4.29984C6.43526 4.29402 6.35553 4.31122 6.29209 4.34794C6.22865 4.38466 6.18628 4.43814 6.17361 4.49747C6.16094 4.5568 6.17893 4.61752 6.22391 4.66725L6.32152 4.7664C6.37505 4.82069 6.43173 4.87734 6.48841 4.94108C6.34973 5.0756 6.22449 5.21762 6.11371 5.36597C5.34226 4.79708 5.25725 4.443 5.28244 4.27305C5.29328 4.20789 5.32318 4.14534 5.36999 4.08985C5.41679 4.03435 5.47936 3.98729 5.55323 3.95201L14.1556 2.50029C15.7331 4.07887 16.8645 5.88209 17.4807 7.79968C18.5261 10.9085 18.3718 17.6407 18.3371 18.7266ZM16.98 10.316C16.9414 10.297 16.8977 10.2847 16.852 10.2798C16.8063 10.2749 16.7597 10.2776 16.7155 10.2877L10.9848 11.5458C10.9089 11.5624 10.8442 11.5998 10.8033 11.6505C10.7625 11.7012 10.7486 11.7616 10.7644 11.8197C10.7644 11.8409 11.3406 14.022 11.2839 19.2719C11.2839 19.3345 11.3171 19.3945 11.3762 19.4388C11.4352 19.483 11.5153 19.5079 11.5988 19.5079C11.64 19.5075 11.6806 19.5011 11.7185 19.489L17.3264 17.7824C17.3834 17.7648 17.4323 17.7351 17.467 17.6969C17.5017 17.6587 17.5207 17.6138 17.5216 17.5676C17.5661 15.2032 17.4315 12.8389 17.1186 10.486C17.1122 10.452 17.0967 10.4194 17.0728 10.3902C17.049 10.361 17.0174 10.3357 16.98 10.316ZM16.895 17.4094L11.9168 18.9249C11.942 14.7184 11.5705 12.5868 11.4319 11.9424L16.536 10.8188C16.81 13.0094 16.9298 15.2093 16.895 17.4094ZM14.2658 14.5225C13.7776 14.9354 13.4307 15.4312 13.2551 15.9671C12.7261 15.6107 12.6064 14.9002 12.9654 14.2392C13.1508 13.8769 13.4806 13.5661 13.91 13.3493C14.081 13.2567 14.2782 13.1949 14.4863 13.1687C14.6943 13.1425 14.9077 13.1526 15.1097 13.1982C14.9936 13.6888 14.7019 14.1465 14.2658 14.5225ZM15.4844 13.3682C16.0259 13.7246 16.1519 14.4375 15.7992 15.1055C15.6128 15.4681 15.2832 15.7794 14.8546 15.9978C14.6124 16.1205 14.3282 16.1885 14.0359 16.1937C13.9008 16.1932 13.7666 16.1756 13.6392 16.1418C13.7737 15.6134 14.1007 15.1232 14.5838 14.7255C15.022 14.3404 15.3308 13.8823 15.4844 13.3894V13.3682Z" fill="#828282"/>
</svg>
