<svg width="24" height="24" viewBox="0 0 24 24" fill="none" xmlns="http://www.w3.org/2000/svg">
<g clip-path="url(#clip0)">
<path d="M16.8483 18.8689L12.3504 17.1792V4.00382L16.2934 5.48491V7.26583C16.2934 7.37476 16.3366 7.47923 16.4137 7.55626C16.4907 7.63329 16.5952 7.67656 16.7041 7.67656C16.813 7.67656 16.9175 7.63329 16.9945 7.55626C17.0715 7.47923 17.1148 7.37476 17.1148 7.26583V5.19986C17.1148 5.11632 17.0893 5.03476 17.0418 4.96607C16.9942 4.89738 16.9269 4.84483 16.8487 4.81542L12.0842 3.02547C12.0462 3.01178 12.0063 3.00389 11.9659 3.00205C11.9573 3.00205 11.9487 3.00205 11.94 3.00205C11.8914 3.00126 11.843 3.00904 11.7971 3.02505H11.7938L7.17477 4.76038L2.55489 3.02629C2.53186 3.02043 2.50836 3.01658 2.48466 3.01479C2.46053 3.00758 2.43578 3.00263 2.41073 3C2.40744 3 2.40498 3 2.4021 3C2.37052 3.00261 2.33936 3.00895 2.30928 3.01889C2.28771 3.02217 2.26642 3.02711 2.24562 3.03368C2.22275 3.04642 2.20104 3.06113 2.18072 3.07763C2.15828 3.09089 2.13699 3.106 2.11706 3.12281C2.10361 3.1399 2.09152 3.15803 2.08091 3.17702C2.06074 3.20221 2.04377 3.2298 2.03039 3.25917C2.03039 3.26163 2.02711 3.26369 2.02588 3.26615C2.01951 3.29049 2.01552 3.31539 2.01396 3.34049C2.00723 3.36344 2.00255 3.38695 2 3.41073V17.4634C2 17.4663 2 17.4688 2 17.4716C2.0027 17.5038 2.00918 17.5355 2.0193 17.5661C2.02253 17.5871 2.02748 17.6079 2.03409 17.6281C2.04565 17.6508 2.05941 17.6722 2.07516 17.6922C2.08846 17.7152 2.10386 17.7369 2.12117 17.7571C2.13754 17.7698 2.15484 17.7814 2.17292 17.7916C2.19805 17.8123 2.22564 17.8298 2.25506 17.8437C2.25794 17.8437 2.25958 17.847 2.26205 17.8479L7.0265 19.6378C7.02979 19.6378 7.03348 19.6378 7.03677 19.6378C7.07784 19.6523 7.12095 19.6602 7.1645 19.6612H7.17067C7.21649 19.6605 7.26188 19.6522 7.30497 19.6366C7.30826 19.6366 7.31196 19.6366 7.31524 19.6366L11.9396 17.9037L16.5595 19.6395C16.6055 19.657 16.6544 19.6661 16.7037 19.6661C16.8001 19.6664 16.8935 19.6328 16.9675 19.5711C17.0416 19.5094 17.0917 19.4237 17.1089 19.3289C17.1261 19.234 17.1095 19.1362 17.0618 19.0524C17.0142 18.9686 16.9386 18.9042 16.8483 18.8706V18.8689ZM2.82146 4.00382L6.76445 5.48491V18.6603L2.82146 17.1792V4.00382ZM7.58591 5.48491L11.5289 4.00382V17.1792L7.58591 18.6603V5.48491ZM24.1469 18.7662L21.4981 16.117C22.2147 15.2511 22.5703 14.1425 22.4911 13.0213C22.4119 11.9001 21.9039 10.8525 21.0726 10.0959C20.2414 9.33938 19.1507 8.93204 18.027 8.95847C16.9033 8.9849 15.833 9.44307 15.0382 10.2379C14.2434 11.0326 13.7852 12.103 13.7588 13.2267C13.7324 14.3503 14.1397 15.441 14.8962 16.2723C15.6528 17.1036 16.7004 17.6116 17.8216 17.6908C18.9428 17.77 20.0514 17.4144 20.9174 16.6978L23.5661 19.347C23.6436 19.4218 23.7474 19.4632 23.855 19.4623C23.9627 19.4614 24.0658 19.4182 24.1419 19.342C24.2181 19.2659 24.2613 19.1628 24.2622 19.0551C24.2631 18.9475 24.2217 18.8437 24.1469 18.7662ZM14.5913 13.336C14.5913 12.6349 14.7992 11.9496 15.1887 11.3667C15.5782 10.7838 16.1317 10.3295 16.7794 10.0612C17.4271 9.79294 18.1398 9.72274 18.8274 9.85951C19.515 9.99628 20.1466 10.3339 20.6423 10.8296C21.138 11.3253 21.4756 11.9569 21.6124 12.6445C21.7491 13.3321 21.6789 14.0448 21.4107 14.6924C21.1424 15.3401 20.6881 15.8937 20.1052 16.2832C19.5223 16.6727 18.8369 16.8806 18.1359 16.8806C17.1961 16.8795 16.2952 16.5057 15.6307 15.8412C14.9662 15.1767 14.5924 14.2757 14.5913 13.336Z" fill="#828282"/>
</g>
<defs>
<clipPath id="clip0">
<rect width="24" height="24" fill="white"/>
</clipPath>
</defs>
</svg>
