<svg width="24" height="24" viewBox="0 0 24 24" fill="none" xmlns="http://www.w3.org/2000/svg">
<path d="M21.0739 5.5H20.6923V5H20.9137C21.0029 5.00157 21.09 4.97575 21.1598 4.92702C21.2295 4.8783 21.2774 4.80976 21.2953 4.73333L21.799 2.56667C21.8105 2.51767 21.8092 2.46706 21.7952 2.41857C21.7812 2.37008 21.7549 2.32495 21.7183 2.28654C21.6816 2.24812 21.6356 2.2174 21.5835 2.19665C21.5314 2.1759 21.4746 2.16565 21.4174 2.16667H20.6923V1.66667C20.6923 1.48986 20.6119 1.32029 20.4688 1.19526C20.3256 1.07024 20.1315 1 19.9291 1H19.5475C19.345 1 19.1509 1.07024 19.0078 1.19526C18.8646 1.32029 18.7842 1.48986 18.7842 1.66667V2.16667H18.0515C17.9943 2.16565 17.9375 2.1759 17.8854 2.19665C17.8334 2.2174 17.7873 2.24812 17.7506 2.28654C17.714 2.32495 17.6877 2.37008 17.6737 2.41857C17.6597 2.46706 17.6584 2.51767 17.6699 2.56667L18.1813 4.73333C18.1991 4.80976 18.2471 4.8783 18.3168 4.92702C18.3865 4.97575 18.4736 5.00157 18.5629 5H18.7842V5.5H15.1589C15.0763 5.5 14.9959 5.52339 14.9299 5.56667L13.5064 6.5H11.1519V6.16667C11.1519 5.94565 11.0513 5.73369 10.8724 5.57741C10.6935 5.42113 10.4508 5.33333 10.1978 5.33333C9.94478 5.33333 9.70211 5.42113 9.52319 5.57741C9.34428 5.73369 9.24376 5.94565 9.24376 6.16667V6.5H8.48052C8.37931 6.5 8.28224 6.53512 8.21068 6.59763C8.13911 6.66014 8.0989 6.74493 8.0989 6.83333V7.83333C8.0989 7.92174 8.13911 8.00652 8.21068 8.06904C8.28224 8.13155 8.37931 8.16667 8.48052 8.16667H9.24376V8.66667H6.38162C6.28041 8.66667 6.18334 8.70179 6.11177 8.7643C6.04021 8.82681 6 8.91159 6 9V14C6 14.0884 6.04021 14.1732 6.11177 14.2357C6.18334 14.2982 6.28041 14.3333 6.38162 14.3333H6.64875L6.79377 14.9033C7.14099 16.2847 7.14099 17.7153 6.79377 19.0967L6.64875 19.6667H6.38162C6.28041 19.6667 6.18334 19.7018 6.11177 19.7643C6.04021 19.8268 6 19.9116 6 20V23C6 23.0884 6.04021 23.1732 6.11177 23.2357C6.18334 23.2982 6.28041 23.3333 6.38162 23.3333H14.014C14.1152 23.3333 14.2123 23.2982 14.2838 23.2357C14.3554 23.1732 14.3956 23.0884 14.3956 23V20C14.3956 19.9116 14.3554 19.8268 14.2838 19.7643C14.2123 19.7018 14.1152 19.6667 14.014 19.6667H13.7469L13.6018 19.0967C13.2546 17.7153 13.2546 16.2847 13.6018 14.9033L13.7469 14.3333H14.014C14.1152 14.3333 14.2123 14.2982 14.2838 14.2357C14.3554 14.1732 14.3956 14.0884 14.3956 14V9C14.3956 8.91159 14.3554 8.82681 14.2838 8.7643C14.2123 8.70179 14.1152 8.66667 14.014 8.66667H11.1519V8.16667H14.014C14.0966 8.16667 14.1769 8.14327 14.243 8.1L15.6664 7.16667H21.0739C21.1752 7.16667 21.2722 7.13155 21.3438 7.06904C21.4154 7.00652 21.4556 6.92174 21.4556 6.83333V5.83333C21.4556 5.74493 21.4154 5.66014 21.3438 5.59763C21.2722 5.53512 21.1752 5.5 21.0739 5.5ZM19.5475 1.66667H19.9291V2.16667H19.5475V1.66667ZM18.5209 2.83333H20.9556L20.6046 4.33333H18.872L18.5209 2.83333ZM19.5475 5H19.9291V5.5H19.5475V5ZM10.007 6.16667C10.007 6.12246 10.0271 6.08007 10.0629 6.04882C10.0987 6.01756 10.1472 6 10.1978 6C10.2484 6 10.2969 6.01756 10.3327 6.04882C10.3685 6.08007 10.3886 6.12246 10.3886 6.16667V6.5H10.007V6.16667ZM13.6324 22.6667H6.76324V20.3333H13.6324V22.6667ZM12.8691 19.24L12.976 19.6667H7.43107L7.52648 19.24C7.90043 17.7645 7.90043 16.2355 7.52648 14.76L7.41962 14.3333H12.9531L12.8691 14.76C12.4952 16.2355 12.4952 17.7645 12.8691 19.24ZM13.6324 13.6667H6.76324V9.33333H13.6324V13.6667ZM10.3886 8.66667H10.007V8.16667H10.3886V8.66667ZM20.6923 6.5H15.5405C15.4579 6.5 15.3776 6.52339 15.3115 6.56667L13.8881 7.5H8.86214V7.16667H13.6324C13.7149 7.16667 13.7953 7.14327 13.8613 7.1L15.2848 6.16667H20.6923V6.5Z" fill="#828282"/>
<path d="M11.2721 15.0233C11.223 15.0135 11.1722 15.0123 11.1225 15.0197C11.0728 15.0271 11.0253 15.0431 10.9827 15.0667C10.9402 15.0902 10.9033 15.1209 10.8744 15.1569C10.8455 15.193 10.825 15.2337 10.8142 15.2767C10.5012 16.5218 10.5012 17.8115 10.8142 19.0567C10.8294 19.1338 10.8753 19.2038 10.9436 19.2544C11.012 19.305 11.0986 19.3329 11.1882 19.3333H11.2721C11.3214 19.3239 11.368 19.306 11.4092 19.2807C11.4505 19.2555 11.4856 19.2233 11.5126 19.1861C11.5396 19.1489 11.5578 19.1075 11.5663 19.0641C11.5748 19.0207 11.5734 18.9762 11.5622 18.9333C11.2722 17.7849 11.2722 16.5951 11.5622 15.4467C11.5776 15.4022 11.5822 15.3554 11.5757 15.3093C11.5692 15.2632 11.5517 15.2188 11.5244 15.179C11.4971 15.1391 11.4605 15.1047 11.4171 15.0779C11.3737 15.0511 11.3243 15.0325 11.2721 15.0233Z" fill="#828282"/>
<path d="M11.9514 11.6667C12.0527 11.6667 12.1497 11.6315 12.2213 11.569C12.2929 11.5065 12.3331 11.4217 12.3331 11.3333V10.3333C12.3331 10.2449 12.2929 10.1601 12.2213 10.0976C12.1497 10.0351 12.0527 10 11.9514 10C11.8502 10 11.7532 10.0351 11.6816 10.0976C11.61 10.1601 11.5698 10.2449 11.5698 10.3333V11.3333C11.5698 11.4217 11.61 11.5065 11.6816 11.569C11.7532 11.6315 11.8502 11.6667 11.9514 11.6667Z" fill="#828282"/>
<path d="M11.9514 13C12.0527 13 12.1497 12.9649 12.2213 12.9024C12.2929 12.8399 12.3331 12.7551 12.3331 12.6667V12.3333C12.3331 12.2449 12.2929 12.1601 12.2213 12.0976C12.1497 12.0351 12.0527 12 11.9514 12C11.8502 12 11.7532 12.0351 11.6816 12.0976C11.61 12.1601 11.5698 12.2449 11.5698 12.3333V12.6667C11.5698 12.7551 11.61 12.8399 11.6816 12.9024C11.7532 12.9649 11.8502 13 11.9514 13Z" fill="#828282"/>
</svg>
