<svg width="24" height="24" viewBox="0 0 24 24" fill="none" xmlns="http://www.w3.org/2000/svg">
<path d="M22.1458 21.0752H20.7585V9.91464C20.7583 9.72546 20.7194 9.53832 20.6444 9.36463C20.5694 9.19095 20.4598 9.03438 20.3223 8.90447L13.3862 2.3761C13.1285 2.13447 12.7884 2 12.4352 2C12.0819 2 11.7419 2.13447 11.4842 2.3761L4.54807 8.90423C4.41053 9.03418 4.30091 9.19079 4.22591 9.36452C4.15091 9.53824 4.11209 9.72542 4.11184 9.91464V21.0752H2.72462C2.60198 21.0752 2.48436 21.1239 2.39764 21.2106C2.31092 21.2973 2.26221 21.415 2.26221 21.5376C2.26221 21.6602 2.31092 21.7778 2.39764 21.8646C2.48436 21.9513 2.60198 22 2.72462 22H22.1458C22.2684 22 22.386 21.9513 22.4727 21.8646C22.5594 21.7778 22.6082 21.6602 22.6082 21.5376C22.6082 21.415 22.5594 21.2973 22.4727 21.2106C22.386 21.1239 22.2684 21.0752 22.1458 21.0752ZM8.73592 21.0752V12.7518C8.73603 12.6292 8.78478 12.5117 8.87148 12.425C8.95817 12.3383 9.07572 12.2895 9.19833 12.2894H15.672C15.7946 12.2895 15.9122 12.3383 15.9989 12.425C16.0856 12.5117 16.1343 12.6292 16.1344 12.7518V21.0752H8.73592ZM17.0593 21.0752V12.7518C17.0589 12.384 16.9126 12.0314 16.6525 11.7714C16.3924 11.5113 16.0398 11.365 15.672 11.3646H9.19833C8.83054 11.365 8.47792 11.5113 8.21786 11.7714C7.95779 12.0314 7.81151 12.384 7.8111 12.7518V21.0752H5.03665V9.91464C5.0367 9.85155 5.04962 9.78912 5.07462 9.73119C5.09963 9.67326 5.13619 9.62104 5.18208 9.57773L12.1182 3.04987C12.204 2.96922 12.3174 2.9243 12.4351 2.92426C12.5529 2.92421 12.6663 2.96905 12.7522 3.04964L19.6883 9.57773C19.7342 9.62104 19.7707 9.67326 19.7957 9.73119C19.8207 9.78912 19.8337 9.85155 19.8337 9.91464V21.0752H17.0593Z" fill="#828282"/>
</svg>
